# xmcd
# 
# Track frame offsets:
#     150
#     18791
#     37934
#     53273
#     67599
#     83885
#     103223
#     120767
#     134653
#     151504
#     167187
#     183328
#     201846
#     213197
# 
# Disc length: 3028
# 
# Revision: 2
# Processed by: cddbd v1.5.2PL0 Copyright (c) Steve Scherf et al.
# Submitted via: BonkEnc v1.0.6
# 
DISCID=a20bd20e
DTITLE=Amigos  - Vol 2
DYEAR=0
DGENRE=
TTITLE0=Fim de festa
TTITLE1=O grande amor da minha vida
TTITLE2=Ela e demais
TTITLE3=Dengo
TTITLE4=A gente se entrega
TTITLE5=Agenda rabiscada
TTITLE6=Dia de rodeio
TTITLE7=Sua ida (I need you)
TTITLE8=Todo tempo e pouco pra te amar
TTITLE9=Deixei de ser cowboy por ela
TTITLE10=Entre o beijo e a boca
TTITLE11=Casa comigo
TTITLE12=Chute pro gooorrr!
TTITLE13=A gostosona
EXTD=
EXTT0=
EXTT1=
EXTT2=
EXTT3=
EXTT4=
EXTT5=
EXTT6=
EXTT7=
EXTT8=
EXTT9=
EXTT10=
EXTT11=
EXTT12=
EXTT13=
PLAYORDER=
